/* XPM */
static char *result[] = {
/* columns rows colors chars-per-pixel */
"64 64 12 1 ",
"  c #3F2631",
". c #763B36",
"X c #262B44",
"o c #E84537",
"O c #BD6C4A",
"+ c #FF706D",
"@ c #EAA56C",
"# c #5A6988",
"$ c #8B9BB4",
"% c #FEC99C",
"& c #C0CBDC",
"* c white",
/* pixels */
"@@@@@@@@OOOO$$$$$$$$OOOOOOOOOOOOOOOOOOOOOOOO$$$$$$$$OOOO%%%%@@@@",
"@@@@@@@@OOOO$$$$$$$$OOOOOOOOOOOOOOOOOOOOOOOO$$$$$$$$OOOO%%%%@@@@",
"@@@@@@@@OOOO$$$$$$$$OOOOOOOOOOOOOOOOOOOOOOOO$$$$$$$$OOOO%%%%@@@@",
"@@@@@@@@OOOO$$$$$$$$OOOOOOOOOOOOOOOOOOOOOOOO$$$$$$$$OOOO%%%%@@@@",
"@@@@@@@@OOOO&&&&&&&&@@@@@@@@@@@@@@@@@@@@@@@@&&&&&&&&OOOO@@@@@@@@",
"@@@@@@@@OOOO&&&&&&&&@@@@@@@@@@@@@@@@@@@@@@@@&&&&&&&&OOOO@@@@@@@@",
"@@@@@@@@OOOO&&&&&&&&@@@@@@@@@@@@@@@@@@@@@@@@&&&&&&&&OOOO@@@@@@@@",
"@@@@@@@@OOOO&&&&&&&&@@@@@@@@@@@@@@@@@@@@@@@@&&&&&&&&OOOO@@@@@@@@",
"@@@@%%%%OOOO$$$$$$$$OOOO&&&&&&&&&&&&&&&&OOOO$$$$$$$$OOOO@@@@%%%%",
"@@@@%%%%OOOO$$$$$$$$OOOO&&&&&&&&&&&&&&&&OOOO$$$$$$$$OOOO@@@@%%%%",
"@@@@%%%%OOOO$$$$$$$$OOOO&&&&&&&&&&&&&&&&OOOO$$$$$$$$OOOO@@@@%%%%",
"@@@@%%%%OOOO$$$$$$$$OOOO&&&&&&&&&&&&&&&&OOOO$$$$$$$$OOOO@@@@%%%%",
"@@@@%%%%&&&&&&&&&&&&####&&&&XXXXXXXX&&&&####&&&&&&&&&&&&%%%%@@@@",
"@@@@%%%%&&&&&&&&&&&&####&&&&XXXXXXXX&&&&####&&&&&&&&&&&&%%%%@@@@",
"@@@@%%%%&&&&&&&&&&&&####&&&&XXXXXXXX&&&&####&&&&&&&&&&&&%%%%@@@@",
"@@@@%%%%&&&&&&&&&&&&####&&&&XXXXXXXX&&&&####&&&&&&&&&&&&%%%%@@@@",
"@@@@@@@@&&&&&&&&&&&&####&&&&XXXXXXXX&&&&####&&&&&&&&&&&&@@@@@@@@",
"@@@@@@@@&&&&&&&&&&&&####&&&&XXXXXXXX&&&&####&&&&&&&&&&&&@@@@@@@@",
"@@@@@@@@&&&&&&&&&&&&####&&&&XXXXXXXX&&&&####&&&&&&&&&&&&@@@@@@@@",
"@@@@@@@@&&&&&&&&&&&&####&&&&XXXXXXXX&&&&####&&&&&&&&&&&&@@@@@@@@",
"@@@@@@@@....    $$$$    &&&&&&&&&&&&&&&&    $$$$    ....@@@@%%%%",
"@@@@@@@@....    $$$$    &&&&&&&&&&&&&&&&    $$$$    ....@@@@%%%%",
"@@@@@@@@....    $$$$    &&&&&&&&&&&&&&&&    $$$$    ....@@@@%%%%",
"@@@@@@@@....    $$$$    &&&&&&&&&&&&&&&&    $$$$    ....@@@@%%%%",
"%%%%@@@@....    ****                        ****    ....@@@@%%%%",
"%%%%@@@@....    ****                        ****    ....@@@@%%%%",
"%%%%@@@@....    ****                        ****    ....@@@@%%%%",
"%%%%@@@@....    ****                        ****    ....@@@@%%%%",
"@@@@@@@@....                ........                ....@@@@@@@@",
"@@@@@@@@....                ........                ....@@@@@@@@",
"@@@@@@@@....                ........                ....@@@@@@@@",
"@@@@@@@@....                ........                ....@@@@@@@@",
"@@@@%%%%OOOO    ****    oooooooooooooooo    ****    OOOO@@@@@@@@",
"@@@@%%%%OOOO    ****    oooooooooooooooo    ****    OOOO@@@@@@@@",
"@@@@%%%%OOOO    ****    oooooooooooooooo    ****    OOOO@@@@@@@@",
"@@@@%%%%OOOO    ****    oooooooooooooooo    ****    OOOO@@@@@@@@",
"@@@@%%%%OOOO    &&&&    ++++oooooooo++++    &&&&    OOOO%%%%@@@@",
"@@@@%%%%OOOO    &&&&    ++++oooooooo++++    &&&&    OOOO%%%%@@@@",
"@@@@%%%%OOOO    &&&&    ++++oooooooo++++    &&&&    OOOO%%%%@@@@",
"@@@@%%%%OOOO    &&&&    ++++oooooooo++++    &&&&    OOOO%%%%@@@@",
"@@@@@@@@OOOOOOOOOOOOOOOO++++++++++++++++OOOOOOOOOOOOOOOO%%%%@@@@",
"@@@@@@@@OOOOOOOOOOOOOOOO++++++++++++++++OOOOOOOOOOOOOOOO%%%%@@@@",
"@@@@@@@@OOOOOOOOOOOOOOOO++++++++++++++++OOOOOOOOOOOOOOOO%%%%@@@@",
"@@@@@@@@OOOOOOOOOOOOOOOO++++++++++++++++OOOOOOOOOOOOOOOO%%%%@@@@",
"@@@@@@@@####............++++++++++++++++............####@@@@@@@@",
"@@@@@@@@####............++++++++++++++++............####@@@@@@@@",
"@@@@@@@@####............++++++++++++++++............####@@@@@@@@",
"@@@@@@@@####............++++++++++++++++............####@@@@@@@@",
"%%%%@@@@&&&&OOOOOOOOOOOOOOOO++++++++OOOOOOOOOOOOOOOO&&&&@@@@%%%%",
"%%%%@@@@&&&&OOOOOOOOOOOOOOOO++++++++OOOOOOOOOOOOOOOO&&&&@@@@%%%%",
"%%%%@@@@&&&&OOOOOOOOOOOOOOOO++++++++OOOOOOOOOOOOOOOO&&&&@@@@%%%%",
"%%%%@@@@&&&&OOOOOOOOOOOOOOOO++++++++OOOOOOOOOOOOOOOO&&&&@@@@%%%%",
"@@@@%%%%&&&&&&&&&&&&&&&&&&&&&&&&&&&&&&&&&&&&&&&&&&&&&&&&@@@@%%%%",
"@@@@%%%%&&&&&&&&&&&&&&&&&&&&&&&&&&&&&&&&&&&&&&&&&&&&&&&&@@@@%%%%",
"@@@@%%%%&&&&&&&&&&&&&&&&&&&&&&&&&&&&&&&&&&&&&&&&&&&&&&&&@@@@%%%%",
"@@@@%%%%&&&&&&&&&&&&&&&&&&&&&&&&&&&&&&&&&&&&&&&&&&&&&&&&@@@@%%%%",
"@@@@%%%%%%%%@@@@@@@@@@@@@@@@%%%%%%%%@@@@@@@@@@@@%%%%%%%%@@@@@@@@",
"@@@@%%%%%%%%@@@@@@@@@@@@@@@@%%%%%%%%@@@@@@@@@@@@%%%%%%%%@@@@@@@@",
"@@@@%%%%%%%%@@@@@@@@@@@@@@@@%%%%%%%%@@@@@@@@@@@@%%%%%%%%@@@@@@@@",
"@@@@%%%%%%%%@@@@@@@@@@@@@@@@%%%%%%%%@@@@@@@@@@@@%%%%%%%%@@@@@@@@",
"@@@@@@@@@@@@@@@@%%%%%%%%@@@@@@@@@@@@@@@@%%%%@@@@@@@@@@@@@@@@@@@@",
"@@@@@@@@@@@@@@@@%%%%%%%%@@@@@@@@@@@@@@@@%%%%@@@@@@@@@@@@@@@@@@@@",
"@@@@@@@@@@@@@@@@%%%%%%%%@@@@@@@@@@@@@@@@%%%%@@@@@@@@@@@@@@@@@@@@",
"@@@@@@@@@@@@@@@@%%%%%%%%@@@@@@@@@@@@@@@@%%%%@@@@@@@@@@@@@@@@@@@@"
};
