/* XPM */
static char *exit_1_png1701513607[] = {
/* columns rows colors chars-per-pixel */
"64 64 3 1 ",
"  c black",
". c #EAA56C",
"X c #EFE6E6",
/* pixels */
"................................................................",
"................................................................",
"............X...................................................",
"............................................................X...",
"................................................................",
"...............................X................................",
"...X................X...........................................",
".........  .....................................................",
".........  ............ ........................................",
"..........  ...........  .........................X.............",
"...........  ..........  .......................................",
"...........   ..........  ......................................",
"............   .........  ......................................",
".............    ........  .....................................",
".............     .......   ....................................",
"..............       .....   .............X.....................",
"...............       ....   ...............................X...",
"...............         ...   ........ .........................",
".......  ......          ..    ....... .........................",
"........  ......                ...... .........................",
"........   ..X..                 .....  ..... ..................",
".........   .....           X     ....   ....  .................",
"..........    ...                  ...   ....  .................",
"...........    ...                 ...    ...   ................",
"...........                         ..    ...    ......X........",
"............                         .     ..    .............X.",
"............      X                  .     ..     ..............",
".............                               .     ..............",
".............                                      .............",
"..............                                      ............",
".....X........                         X            ............",
"...............            .                         ...........",
"................           ..                      X  ..........",
".................           ..                         .........",
".................           ...                        .........",
"..................     X    ...                         ........",
"...................         ....                         .......",
"...................          ....                        .......",
"....................         ....                         ......",
".....................        .....                ..       .....",
"...X........X..........       .....          X    ...      .....",
"........................      .....   .           ....      ....",
".........................      .....  .            ....      ...",
"..........................     .....  ..           .....     ...",
"...........................     .........          ......     ..",
"............................    .........          .......     .",
".............................    .........         ........    .",
"..............................   .....X....         .........  .",
"..............................    ..........        ............",
"...............................   ............      ............",
"........X......................    ............     ............",
"...................X............   .............    ............",
".................................   .............   ............",
"..................................  ..............  ....X.......",
"...................................  .............. ............",
"...................................  ...........................",
".................................... ...........................",
"............................X...................................",
"................................................................",
"................................................................",
"................................................................",
"....X............X..............................................",
".............................................X..................",
"................................................................"
};
