/* XPM */
static char *_d38f8daedcd4fbbcd18fcb869c7542c5iiKbDUOSJasKsSN[] = {
/* columns rows colors chars-per-pixel */
"64 64 3 1 ",
"  c #CF8254",
". c #EAA56C",
"X c #FEC99C",
/* pixels */
"................................................................",
"................................................................",
"................................................................",
"................................................................",
"................................................................",
"................................................................",
"................................................................",
"................................................................",
"....XXXXXXXX....................................................",
"....XXXXXXXX....................................................",
"....XXXXXXXX....................................................",
"....XXXXXXXX....................................................",
"....XXXXXXXX............    ....................................",
"....XXXXXXXX............    ....................................",
"....XXXXXXXX............    ....................................",
"....XXXXXXXX............    ....................................",
"................................................................",
"................................................................",
"................................................................",
"................................................................",
"............    ................................................",
"............    ................................................",
"............    ................................................",
"............    ................................................",
"........................        ................................",
"........................        ................................",
"........................        ................................",
"........................        ................................",
"........................        ................................",
"........................        ................................",
"........................        ................................",
"........................        ................................",
"................................................................",
"................................................................",
"................................................................",
"................................................................",
"................................................................",
"................................................................",
"................................................................",
"................................................................",
"................................................................",
"................................................................",
"................................................................",
"................................................................",
"................................................    ............",
"................................................    ............",
"................................................    ............",
"................................................    ............",
"................................................................",
"................................................................",
"................................................................",
"................................................................",
"....................................XXXX........................",
"....................................XXXX........................",
"....................................XXXX........................",
"....................................XXXX........................",
"....................................................XXXX........",
"....................................................XXXX........",
"....................................................XXXX........",
"....................................................XXXX........",
"................................................................",
"................................................................",
"................................................................",
"................................................................"
};
