/* XPM */
static char *ff076acd5b7f4657c5b2f39ed9315c0bHqyI2joz8OcTQ4ef[] = {
/* columns rows colors chars-per-pixel */
"64 64 9 1 ",
"  c #3F2631",
". c #763B36",
"X c #262B44",
"o c #BD6C4A",
"O c #EAA56C",
"+ c #5A6988",
"@ c #8B9BB4",
"# c #FEC99C",
"$ c #C0CBDC",
/* pixels */
"OOOOOOOOoooo@@@@@@@@oooooooooooooooooooooooo@@@@@@@@oooo####OOOO",
"OOOOOOOOoooo@@@@@@@@oooooooooooooooooooooooo@@@@@@@@oooo####OOOO",
"OOOOOOOOoooo@@@@@@@@oooooooooooooooooooooooo@@@@@@@@oooo####OOOO",
"OOOOOOOOoooo@@@@@@@@oooooooooooooooooooooooo@@@@@@@@oooo####OOOO",
"OOOOOOOOoooo$$$$$$$$OOOOOOOOOOOOOOOOOOOOOOOO$$$$$$$$ooooOOOOOOOO",
"OOOOOOOOoooo$$$$$$$$OOOOOOOOOOOOOOOOOOOOOOOO$$$$$$$$ooooOOOOOOOO",
"OOOOOOOOoooo$$$$$$$$OOOOOOOOOOOOOOOOOOOOOOOO$$$$$$$$ooooOOOOOOOO",
"OOOOOOOOoooo$$$$$$$$OOOOOOOOOOOOOOOOOOOOOOOO$$$$$$$$ooooOOOOOOOO",
"OOOO####oooo@@@@@@@@oooo$$$$$$$$$$$$$$$$oooo@@@@@@@@ooooOOOO####",
"OOOO####oooo@@@@@@@@oooo$$$$$$$$$$$$$$$$oooo@@@@@@@@ooooOOOO####",
"OOOO####oooo@@@@@@@@oooo$$$$$$$$$$$$$$$$oooo@@@@@@@@ooooOOOO####",
"OOOO####oooo@@@@@@@@oooo$$$$$$$$$$$$$$$$oooo@@@@@@@@ooooOOOO####",
"OOOO####$$$$$$$$$$$$++++$$$$XXXXXXXX$$$$++++$$$$$$$$$$$$####OOOO",
"OOOO####$$$$$$$$$$$$++++$$$$XXXXXXXX$$$$++++$$$$$$$$$$$$####OOOO",
"OOOO####$$$$$$$$$$$$++++$$$$XXXXXXXX$$$$++++$$$$$$$$$$$$####OOOO",
"OOOO####$$$$$$$$$$$$++++$$$$XXXXXXXX$$$$++++$$$$$$$$$$$$####OOOO",
"OOOOOOOO$$$$$$$$$$$$++++$$$$XXXXXXXX$$$$++++$$$$$$$$$$$$OOOOOOOO",
"OOOOOOOO$$$$$$$$$$$$++++$$$$XXXXXXXX$$$$++++$$$$$$$$$$$$OOOOOOOO",
"OOOOOOOO$$$$$$$$$$$$++++$$$$XXXXXXXX$$$$++++$$$$$$$$$$$$OOOOOOOO",
"OOOOOOOO$$$$$$$$$$$$++++$$$$XXXXXXXX$$$$++++$$$$$$$$$$$$OOOOOOOO",
"OOOOOOOO....            $$$$$$$$$$$$$$$$            ....OOOO####",
"OOOOOOOO....            $$$$$$$$$$$$$$$$            ....OOOO####",
"OOOOOOOO....            $$$$$$$$$$$$$$$$            ....OOOO####",
"OOOOOOOO....            $$$$$$$$$$$$$$$$            ....OOOO####",
"####OOOO....                                        ....OOOO####",
"####OOOO....                                        ....OOOO####",
"####OOOO....                                        ....OOOO####",
"####OOOO....                                        ....OOOO####",
"OOOOOOOO....                                        ....OOOOOOOO",
"OOOOOOOO....                                        ....OOOOOOOO",
"OOOOOOOO....                                        ....OOOOOOOO",
"OOOOOOOO....                                        ....OOOOOOOO",
"OOOO####oooo                                        ooooOOOOOOOO",
"OOOO####oooo                                        ooooOOOOOOOO",
"OOOO####oooo                                        ooooOOOOOOOO",
"OOOO####oooo                                        ooooOOOOOOOO",
"OOOO####oooo                                        oooo####OOOO",
"OOOO####oooo                                        oooo####OOOO",
"OOOO####oooo                                        oooo####OOOO",
"OOOO####oooo                                        oooo####OOOO",
"OOOOOOOOoooooooooooooooooooooooooooooooooooooooooooooooo####OOOO",
"OOOOOOOOoooooooooooooooooooooooooooooooooooooooooooooooo####OOOO",
"OOOOOOOOoooooooooooooooooooooooooooooooooooooooooooooooo####OOOO",
"OOOOOOOOoooooooooooooooooooooooooooooooooooooooooooooooo####OOOO",
"OOOOOOOO++++........................................++++OOOOOOOO",
"OOOOOOOO++++........................................++++OOOOOOOO",
"OOOOOOOO++++........................................++++OOOOOOOO",
"OOOOOOOO++++........................................++++OOOOOOOO",
"####OOOO$$$$oooooooooooooooooooooooooooooooooooooooo$$$$OOOO####",
"####OOOO$$$$oooooooooooooooooooooooooooooooooooooooo$$$$OOOO####",
"####OOOO$$$$oooooooooooooooooooooooooooooooooooooooo$$$$OOOO####",
"####OOOO$$$$oooooooooooooooooooooooooooooooooooooooo$$$$OOOO####",
"OOOO####$$$$$$$$$$$$$$$$$$$$$$$$$$$$$$$$$$$$$$$$$$$$$$$$OOOO####",
"OOOO####$$$$$$$$$$$$$$$$$$$$$$$$$$$$$$$$$$$$$$$$$$$$$$$$OOOO####",
"OOOO####$$$$$$$$$$$$$$$$$$$$$$$$$$$$$$$$$$$$$$$$$$$$$$$$OOOO####",
"OOOO####$$$$$$$$$$$$$$$$$$$$$$$$$$$$$$$$$$$$$$$$$$$$$$$$OOOO####",
"OOOO########OOOOOOOOOOOOOOOO########OOOOOOOOOOOO########OOOOOOOO",
"OOOO########OOOOOOOOOOOOOOOO########OOOOOOOOOOOO########OOOOOOOO",
"OOOO########OOOOOOOOOOOOOOOO########OOOOOOOOOOOO########OOOOOOOO",
"OOOO########OOOOOOOOOOOOOOOO########OOOOOOOOOOOO########OOOOOOOO",
"OOOOOOOOOOOOOOOO########OOOOOOOOOOOOOOOO####OOOOOOOOOOOOOOOOOOOO",
"OOOOOOOOOOOOOOOO########OOOOOOOOOOOOOOOO####OOOOOOOOOOOOOOOOOOOO",
"OOOOOOOOOOOOOOOO########OOOOOOOOOOOOOOOO####OOOOOOOOOOOOOOOOOOOO",
"OOOOOOOOOOOOOOOO########OOOOOOOOOOOOOOOO####OOOOOOOOOOOOOOOOOOOO"
};
