/* XPM */
static char *a9c192d3f37847b7f6713ed784d4c5faauxhVfsoSUrlksJM[] = {
/* columns rows colors chars-per-pixel */
"64 64 9 1 ",
"  c #3F2631",
". c #763B36",
"X c #262B44",
"o c #BD6C4A",
"O c #EAA56C",
"+ c #5A6988",
"@ c #8B9BB4",
"# c #FEC99C",
"$ c #C0CBDC",
/* pixels */
"OOOOOOOO####OOOOOOOOOOOO####OOOOOOOOOOOOOOOOOOOOOOOO########OOOO",
"OOOOOOOO####OOOOOOOOOOOO####OOOOOOOOOOOOOOOOOOOOOOOO########OOOO",
"OOOOOOOO####OOOOOOOOOOOO####OOOOOOOOOOOOOOOOOOOOOOOO########OOOO",
"OOOOOOOO####OOOOOOOOOOOO####OOOOOOOOOOOOOOOOOOOOOOOO########OOOO",
"OOOOOOOOOOOOOOOOOOOO####OOOOOOOOOOOOOOOO########OOOOOOOOOOOOOOOO",
"OOOOOOOOOOOOOOOOOOOO####OOOOOOOOOOOOOOOO########OOOOOOOOOOOOOOOO",
"OOOOOOOOOOOOOOOOOOOO####OOOOOOOOOOOOOOOO########OOOOOOOOOOOOOOOO",
"OOOOOOOOOOOOOOOOOOOO####OOOOOOOOOOOOOOOO########OOOOOOOOOOOOOOOO",
"OOOO####oooo@@@@@@@@oooooooooooooooooooooooo@@@@@@@@ooooOOOO####",
"OOOO####oooo@@@@@@@@oooooooooooooooooooooooo@@@@@@@@ooooOOOO####",
"OOOO####oooo@@@@@@@@oooooooooooooooooooooooo@@@@@@@@ooooOOOO####",
"OOOO####oooo@@@@@@@@oooooooooooooooooooooooo@@@@@@@@ooooOOOO####",
"OOOO####oooo$$$$$$$$OOOOOOOOOOOOOOOOOOOOOOOO$$$$$$$$oooo####OOOO",
"OOOO####oooo$$$$$$$$OOOOOOOOOOOOOOOOOOOOOOOO$$$$$$$$oooo####OOOO",
"OOOO####oooo$$$$$$$$OOOOOOOOOOOOOOOOOOOOOOOO$$$$$$$$oooo####OOOO",
"OOOO####oooo$$$$$$$$OOOOOOOOOOOOOOOOOOOOOOOO$$$$$$$$oooo####OOOO",
"OOOOOOOOoooo@@@@@@@@oooo$$$$$$$$$$$$$$$$oooo@@@@@@@@ooooOOOOOOOO",
"OOOOOOOOoooo@@@@@@@@oooo$$$$$$$$$$$$$$$$oooo@@@@@@@@ooooOOOOOOOO",
"OOOOOOOOoooo@@@@@@@@oooo$$$$$$$$$$$$$$$$oooo@@@@@@@@ooooOOOOOOOO",
"OOOOOOOOoooo@@@@@@@@oooo$$$$$$$$$$$$$$$$oooo@@@@@@@@ooooOOOOOOOO",
"OOOOOOOO$$$$$$$$$$$$++++$$$$XXXXXXXX$$$$++++$$$$$$$$$$$$OOOO####",
"OOOOOOOO$$$$$$$$$$$$++++$$$$XXXXXXXX$$$$++++$$$$$$$$$$$$OOOO####",
"OOOOOOOO$$$$$$$$$$$$++++$$$$XXXXXXXX$$$$++++$$$$$$$$$$$$OOOO####",
"OOOOOOOO$$$$$$$$$$$$++++$$$$XXXXXXXX$$$$++++$$$$$$$$$$$$OOOO####",
"####OOOO$$$$$$$$$$$$++++$$$$XXXXXXXX$$$$++++$$$$$$$$$$$$OOOO####",
"####OOOO$$$$$$$$$$$$++++$$$$XXXXXXXX$$$$++++$$$$$$$$$$$$OOOO####",
"####OOOO$$$$$$$$$$$$++++$$$$XXXXXXXX$$$$++++$$$$$$$$$$$$OOOO####",
"####OOOO$$$$$$$$$$$$++++$$$$XXXXXXXX$$$$++++$$$$$$$$$$$$OOOO####",
"OOOOOOOO....            $$$$$$$$$$$$$$$$            ....OOOOOOOO",
"OOOOOOOO....            $$$$$$$$$$$$$$$$            ....OOOOOOOO",
"OOOOOOOO....            $$$$$$$$$$$$$$$$            ....OOOOOOOO",
"OOOOOOOO....            $$$$$$$$$$$$$$$$            ....OOOOOOOO",
"OOOO####....                                        ....OOOOOOOO",
"OOOO####....                                        ....OOOOOOOO",
"OOOO####....                                        ....OOOOOOOO",
"OOOO####....                                        ....OOOOOOOO",
"OOOO####oooo                                        oooo####OOOO",
"OOOO####oooo                                        oooo####OOOO",
"OOOO####oooo                                        oooo####OOOO",
"OOOO####oooo                                        oooo####OOOO",
"OOOOOOOOoooooooooooooooooooooooooooooooooooooooooooooooo####OOOO",
"OOOOOOOOoooooooooooooooooooooooooooooooooooooooooooooooo####OOOO",
"OOOOOOOOoooooooooooooooooooooooooooooooooooooooooooooooo####OOOO",
"OOOOOOOOoooooooooooooooooooooooooooooooooooooooooooooooo####OOOO",
"OOOOOOOO++++........................................++++OOOOOOOO",
"OOOOOOOO++++........................................++++OOOOOOOO",
"OOOOOOOO++++........................................++++OOOOOOOO",
"OOOOOOOO++++........................................++++OOOOOOOO",
"####OOOO$$$$oooooooooooooooooooooooooooooooooooooooo$$$$OOOO####",
"####OOOO$$$$oooooooooooooooooooooooooooooooooooooooo$$$$OOOO####",
"####OOOO$$$$oooooooooooooooooooooooooooooooooooooooo$$$$OOOO####",
"####OOOO$$$$oooooooooooooooooooooooooooooooooooooooo$$$$OOOO####",
"OOOO####$$$$$$$$$$$$$$$$$$$$$$$$$$$$$$$$$$$$$$$$$$$$$$$$OOOO####",
"OOOO####$$$$$$$$$$$$$$$$$$$$$$$$$$$$$$$$$$$$$$$$$$$$$$$$OOOO####",
"OOOO####$$$$$$$$$$$$$$$$$$$$$$$$$$$$$$$$$$$$$$$$$$$$$$$$OOOO####",
"OOOO####$$$$$$$$$$$$$$$$$$$$$$$$$$$$$$$$$$$$$$$$$$$$$$$$OOOO####",
"OOOO########OOOOOOOOOOOOOOOO########OOOOOOOOOOOO########OOOOOOOO",
"OOOO########OOOOOOOOOOOOOOOO########OOOOOOOOOOOO########OOOOOOOO",
"OOOO########OOOOOOOOOOOOOOOO########OOOOOOOOOOOO########OOOOOOOO",
"OOOO########OOOOOOOOOOOOOOOO########OOOOOOOOOOOO########OOOOOOOO",
"OOOOOOOOOOOOOOOO########OOOOOOOOOOOOOOOO####OOOOOOOOOOOOOOOOOOOO",
"OOOOOOOOOOOOOOOO########OOOOOOOOOOOOOOOO####OOOOOOOOOOOOOOOOOOOO",
"OOOOOOOOOOOOOOOO########OOOOOOOOOOOOOOOO####OOOOOOOOOOOOOOOOOOOO",
"OOOOOOOOOOOOOOOO########OOOOOOOOOOOOOOOO####OOOOOOOOOOOOOOOOOOOO"
};
