/* XPM */
static char *d12005926b694d329dc0fc2c75cbbbebLhin5MusJXKc2U6K[] = {
/* columns rows colors chars-per-pixel */
"64 64 8 1 ",
"  c #763B36",
". c #262B44",
"X c #BD6C4A",
"o c #EAA56C",
"O c #5A6988",
"+ c #8B9BB4",
"@ c #FEC99C",
"# c #C0CBDC",
/* pixels */
"oooooooo@@@@oooooooooooo@@@@oooooooooooooooooooooooo@@@@@@@@oooo",
"oooooooo@@@@oooooooooooo@@@@oooooooooooooooooooooooo@@@@@@@@oooo",
"oooooooo@@@@oooooooooooo@@@@oooooooooooooooooooooooo@@@@@@@@oooo",
"oooooooo@@@@oooooooooooo@@@@oooooooooooooooooooooooo@@@@@@@@oooo",
"oooooooooooooooooooo@@@@oooooooooooooooo@@@@@@@@oooooooooooooooo",
"oooooooooooooooooooo@@@@oooooooooooooooo@@@@@@@@oooooooooooooooo",
"oooooooooooooooooooo@@@@oooooooooooooooo@@@@@@@@oooooooooooooooo",
"oooooooooooooooooooo@@@@oooooooooooooooo@@@@@@@@oooooooooooooooo",
"oooo@@@@XXXX++++++++XXXXXXXXXXXXXXXXXXXXXXXX++++++++XXXXoooo@@@@",
"oooo@@@@XXXX++++++++XXXXXXXXXXXXXXXXXXXXXXXX++++++++XXXXoooo@@@@",
"oooo@@@@XXXX++++++++XXXXXXXXXXXXXXXXXXXXXXXX++++++++XXXXoooo@@@@",
"oooo@@@@XXXX++++++++XXXXXXXXXXXXXXXXXXXXXXXX++++++++XXXXoooo@@@@",
"oooo@@@@XXXX########oooooooooooooooooooooooo########XXXX@@@@oooo",
"oooo@@@@XXXX########oooooooooooooooooooooooo########XXXX@@@@oooo",
"oooo@@@@XXXX########oooooooooooooooooooooooo########XXXX@@@@oooo",
"oooo@@@@XXXX########oooooooooooooooooooooooo########XXXX@@@@oooo",
"ooooooooXXXX########oooooooooooooooooooooooo########XXXXoooooooo",
"ooooooooXXXX########oooooooooooooooooooooooo########XXXXoooooooo",
"ooooooooXXXX########oooooooooooooooooooooooo########XXXXoooooooo",
"ooooooooXXXX########oooooooooooooooooooooooo########XXXXoooooooo",
"ooooooooXXXX########oooooooooooooooooooooooo########XXXXoooo@@@@",
"ooooooooXXXX########oooooooooooooooooooooooo########XXXXoooo@@@@",
"ooooooooXXXX########oooooooooooooooooooooooo########XXXXoooo@@@@",
"ooooooooXXXX########oooooooooooooooooooooooo########XXXXoooo@@@@",
"@@@@ooooXXXX########oooooooooooooooooooooooo########XXXXoooo@@@@",
"@@@@ooooXXXX########oooooooooooooooooooooooo########XXXXoooo@@@@",
"@@@@ooooXXXX########oooooooooooooooooooooooo########XXXXoooo@@@@",
"@@@@ooooXXXX########oooooooooooooooooooooooo########XXXXoooo@@@@",
"ooooooooXXXX++++++++XXXXXXXXXXXXXXXXXXXXXXXX++++++++XXXXoooooooo",
"ooooooooXXXX++++++++XXXXXXXXXXXXXXXXXXXXXXXX++++++++XXXXoooooooo",
"ooooooooXXXX++++++++XXXXXXXXXXXXXXXXXXXXXXXX++++++++XXXXoooooooo",
"ooooooooXXXX++++++++XXXXXXXXXXXXXXXXXXXXXXXX++++++++XXXXoooooooo",
"oooo@@@@XXXX++++++++XXXX################XXXX++++++++XXXXoooooooo",
"oooo@@@@XXXX++++++++XXXX################XXXX++++++++XXXXoooooooo",
"oooo@@@@XXXX++++++++XXXX################XXXX++++++++XXXXoooooooo",
"oooo@@@@XXXX++++++++XXXX################XXXX++++++++XXXXoooooooo",
"oooo@@@@############OOOO####........####OOOO############@@@@oooo",
"oooo@@@@############OOOO####........####OOOO############@@@@oooo",
"oooo@@@@############OOOO####........####OOOO############@@@@oooo",
"oooo@@@@############OOOO####........####OOOO############@@@@oooo",
"oooooooo############OOOO####........####OOOO############@@@@oooo",
"oooooooo############OOOO####........####OOOO############@@@@oooo",
"oooooooo############OOOO####........####OOOO############@@@@oooo",
"oooooooo############OOOO####........####OOOO############@@@@oooo",
"ooooooooOOOO            ################            OOOOoooooooo",
"ooooooooOOOO            ################            OOOOoooooooo",
"ooooooooOOOO            ################            OOOOoooooooo",
"ooooooooOOOO            ################            OOOOoooooooo",
"@@@@oooo####XXXXXXXXXXXX                XXXXXXXXXXXX####oooo@@@@",
"@@@@oooo####XXXXXXXXXXXX                XXXXXXXXXXXX####oooo@@@@",
"@@@@oooo####XXXXXXXXXXXX                XXXXXXXXXXXX####oooo@@@@",
"@@@@oooo####XXXXXXXXXXXX                XXXXXXXXXXXX####oooo@@@@",
"oooo@@@@################################################oooo@@@@",
"oooo@@@@################################################oooo@@@@",
"oooo@@@@################################################oooo@@@@",
"oooo@@@@################################################oooo@@@@",
"oooo@@@@@@@@oooooooooooooooo@@@@@@@@oooooooooooo@@@@@@@@oooooooo",
"oooo@@@@@@@@oooooooooooooooo@@@@@@@@oooooooooooo@@@@@@@@oooooooo",
"oooo@@@@@@@@oooooooooooooooo@@@@@@@@oooooooooooo@@@@@@@@oooooooo",
"oooo@@@@@@@@oooooooooooooooo@@@@@@@@oooooooooooo@@@@@@@@oooooooo",
"oooooooooooooooo@@@@@@@@oooooooooooooooo@@@@oooooooooooooooooooo",
"oooooooooooooooo@@@@@@@@oooooooooooooooo@@@@oooooooooooooooooooo",
"oooooooooooooooo@@@@@@@@oooooooooooooooo@@@@oooooooooooooooooooo",
"oooooooooooooooo@@@@@@@@oooooooooooooooo@@@@oooooooooooooooooooo"
};
