/* XPM */
static char *player_right41701300257[] = {
/* columns rows colors chars-per-pixel */
"64 64 6 1 ",
"  c None",
". c #1C2F60",
"X c #635D96",
"o c #978BDE",
"O c #C4C7EE",
"+ c gray99",
/* pixels */
"                                                                ",
"                                                                ",
"                                                                ",
"                                                                ",
"       ........................                                 ",
"       ........................                                 ",
"       ........................                                 ",
"   ....++++++++++++++++++++++++....                             ",
"   ....++++++++++++++++++++++++....                             ",
"   ....++++++++++++++++++++++++....                             ",
"   ....++++++++++++++++++++++++....                             ",
"...++++++++++++++++++++++++++++++++...                          ",
"...++++++++++++++++++++++++++++++++...                          ",
"...++++++++++++++++++++++++++++++++...                          ",
"...++++++++++++++++++++++++++++++++...                          ",
"...++++++++++++++++++++++++++++++++...                          ",
"...++++++++++++++++++++++++++++++++...                          ",
"...++++++++++++++++++++++++++++++++...                          ",
"...++++++++++++++++++++++++++++++++...                          ",
"...++++++++++++++++++++++++++++++++...                          ",
"...++++++++++++++++++++++++++++++++...                          ",
"...++++++++++++++++++++++++++++++++...                          ",
"...oooo++++++++++++++++++++++++oooo...                          ",
"...oooo++++++++++++++++++++++++oooo...                          ",
"...oooo++++++++++++++++++++++++oooo...                          ",
"...ooooOOOOOOOOOOOOOOOOOOOOOOOOoooo...                          ",
"...ooooOOOOOOOOOOOOOOOOOOOOOOOOoooo...                          ",
"...ooooOOOOOOOOOOOOOOOOOOOOOOOOoooo...                          ",
"...ooooOOOOOOOOOOOOOOOOOOOOOOOOoooo...                          ",
"...OOOOOOOOOOOOOOOOOOOOOOOOOOOOOOOO...                          ",
"...OOOOOOOOOOOOOOOOOOOOOOOOOOOOOOOO...                          ",
"...OOOOOOOOOOOOOOOOOOOOOOOOOOOOOOOO...                          ",
"...OOOOOOOOOO++++++++OOOOOOO...OOOO...                          ",
"...OOOOOOOOOO++++++++OOOOOOO...OOOO...                          ",
"...OOOOOOOOOO++++++++OOOOOOO...OOOO...                          ",
"...OOOOOOOOOO++++++++OOOOOOO...OOOO...                          ",
"...OOOOOOOOOO++++++++OOOOOOO...OOOO...                          ",
"...OOOOOOOOOO++++++++OOOOOOO...OOOO...                          ",
"...OOOOOOOOOO++++++++OOOOOOO...OOOO...                          ",
"   ....OOOOOOOOOOOOOOOOOOOOOOOO....                             ",
"   ....OOOOOOOOOOOOOOOOOOOOOOOO....                             ",
"   ....OOOOOOOOOOOOOOOOOOOOOOOO....                             ",
"       ...XXXooooooooooooXXX...                                 ",
"       ...XXXooooooooooooXXX...                                 ",
"       ...XXXooooooooooooXXX...                                 ",
"   ....+++OOO....OOOOOOOOOOO.....                               ",
"   ....+++OOO....OOOOOOOOOOO......                              ",
"   ....+++OOO....OOOOOOOOOOO.......                             ",
"   ....+++OOO....OOOOOOOOOOO.......                             ",
"   ....+++OOO....OOOOOOOOOOO.......                             ",
"   ....++++++....OOOOOOOOooo.......                             ",
"   ....++++++....OOOOOOOOooo.......                             ",
"   ....++++++....OOOOOOOOooo.......                             ",
"...XXXX..........XXXXoooo...OOO++++...                          ",
"...XXXX..........XXXXoooo...OOO++++...                          ",
"...XXXX..........XXXXoooo...OOO++++...                          ",
"...XXXX..........XXXXoooo...OOO++++...                          ",
"   ....XXXXXX........oooo++++++....                             ",
"   ....XXXXXX........oooo++++++....                             ",
"   ....XXXXXX........oooo++++++....                             ",
"                                                                ",
"                                                                ",
"                                                                ",
"                                                                "
};
