/* XPM */
static char *player_right3_11701300063[] = {
/* columns rows colors chars-per-pixel */
"64 64 6 1 ",
"  c None",
". c #1C2F60",
"X c #635D96",
"o c #978BDE",
"O c #C4C7EE",
"+ c gray99",
/* pixels */
"                                                                ",
"                                                                ",
"                                                  ..............",
"                                                  ..............",
"                                                  ..............",
"                                                  ..............",
"                                              ....++++++++++++++",
"                                              ....++++++++++++++",
"                                              ....++++++++++++++",
"                                              ....++++++++++++++",
"                                           ...++++++++++++++++++",
"                                           ...++++++++++++++++++",
"                                           ...++++++++++++++++++",
"                                           ...++++++++++++++++++",
"                                           ...++++++++++++++++++",
"                                           ...++++++++++++++++++",
"                                           ...++++++++++++++++++",
"                                           ...++++++++++++++++++",
"                                           ...++++++++++++++++++",
"                                           ...++++++++++++++++++",
"                                           ...oooo++++++++++++++",
"                                           ...oooo++++++++++++++",
"                                           ...oooo++++++++++++++",
"                                           ...ooooOOOOOOOOOOOOOO",
"                                           ...ooooOOOOOOOOOOOOOO",
"                                           ...ooooOOOOOOOOOOOOOO",
"                                           ...OOOOOOOOOOOOOOOOOO",
"                                           ...OOOOOOOOOOOOOOOOOO",
"                                           ...OOOOOOOOOOOOOOOOOO",
"                                           ...OOOOOOOOOOOOOOOOOO",
"                                           ...OOOOOOOOOO++++++++",
"                                           ...OOOOOOOOOO++++++++",
"                                           ...OOOOOOOOOO++++++++",
"                                           ...OOOOOOOOOO++++++++",
"                                           ...OOOOOOOOOO++++++++",
"                                           ...OOOOOOOOOO++++++++",
"                                           ...OOOOOOOOOO++++++++",
"                                           ...OOOOOOOOOO++++++++",
"                                              ....OOOOOOOOOOOOOO",
"                                              ....OOOOOOOOOOOOOO",
"                                              ....OOOOOOOOOOOOOO",
"                                                  ...XXXoooooooo",
"                                                  ...XXXoooooooo",
"                                                  ...XXXoooooooo",
"                                                  ...oooooooXXXX",
"                                                  ...oooooooXXXX",
"                                                  ...oooooooXXXX",
"                                                  ...oooooooXXXX",
"                                                  ...+++OOOO....",
"                                                  ...+++OOOO....",
"                                                  ...+++OOOO....",
"                                                  ...+++++++....",
"                                                  ...+++++++....",
"                                                  ...+++++++....",
"                                                     .......XXXX",
"                                                     .......XXXX",
"                                                     .......XXXX",
"                                                     .......XXXX",
"                                                        ....OOOO",
"                                                        ....OOOO",
"                                                        ....OOOO",
"                                                        ....OOOO",
"                                                                ",
"                                                                "
};
