/* XPM */
static char *player_right3_21701300153[] = {
/* columns rows colors chars-per-pixel */
"64 64 6 1 ",
"  c None",
". c #1C2F60",
"X c #635D96",
"o c #978BDE",
"O c #C4C7EE",
"+ c gray99",
/* pixels */
"                                                                ",
"                                                                ",
"..........                                                      ",
"..........                                                      ",
"..........                                                      ",
"..........                                                      ",
"++++++++++....                                                  ",
"++++++++++....                                                  ",
"++++++++++....                                                  ",
"++++++++++....                                                  ",
"++++++++++++++...                                               ",
"++++++++++++++...                                               ",
"++++++++++++++...                                               ",
"++++++++++++++...                                               ",
"++++++++++++++...                                               ",
"++++++++++++++...                                               ",
"++++++++++++++...                                               ",
"++++++++++++++...                                               ",
"++++++++++++++...                                               ",
"++++++++++++++...                                               ",
"++++++++++oooo...                                               ",
"++++++++++oooo...                                               ",
"++++++++++oooo...                                               ",
"OOOOOOOOOOoooo...                                               ",
"OOOOOOOOOOoooo...                                               ",
"OOOOOOOOOOoooo...                                               ",
"OOOOOOOOOOOOOO...                                               ",
"OOOOOOOOOOOOOO...                                               ",
"OOOOOOOOOOOOOO...                                               ",
"OOOOOOOOOOOOOO...                                               ",
"OOOOOOO...OOOO...                                               ",
"OOOOOOO...OOOO...                                               ",
"OOOOOOO...OOOO...                                               ",
"OOOOOOO...OOOO...                                               ",
"OOOOOOO...OOOO...                                               ",
"OOOOOOO...OOOO...                                               ",
"OOOOOOO...OOOO...                                               ",
"OOOOOOO...OOOO...                                               ",
"OOOOOOOOOO....                                                  ",
"OOOOOOOOOO....                                                  ",
"OOOOOOOOOO....                                                  ",
"ooooXXX...                                                      ",
"ooooXXX...                                                      ",
"ooooXXX...                                                      ",
"OOOOOOO...                                                      ",
"OOOOOOO...                                                      ",
"OOOOOOO...                                                      ",
"OOOOOOO...                                                      ",
"OOOOOOO...                                                      ",
"OOOOOOO...                                                      ",
"OOOOOOO...                                                      ",
"OOOOooo...                                                      ",
"OOOOooo...                                                      ",
"OOOOooo...                                                      ",
"oooo...                                                         ",
"oooo...                                                         ",
"oooo...                                                         ",
"oooo...                                                         ",
"+++++++...                                                      ",
"+++++++...                                                      ",
"+++++++...                                                      ",
"+++++++...                                                      ",
"                                                                ",
"                                                                "
};
