/* XPM */
static char *New_Piskel_1_png1701297376[] = {
/* columns rows colors chars-per-pixel */
"64 64 6 1 ",
"  c None",
". c #1C2F60",
"X c #635D96",
"o c #978BDE",
"O c #C4C7EE",
"+ c gray99",
/* pixels */
"                                                                ",
"                                                                ",
"                                                                ",
"                                                                ",
"                                 ........................       ",
"                                 ........................       ",
"                                 ........................       ",
"                             ....++++++++++++++++++++++++....   ",
"                             ....++++++++++++++++++++++++....   ",
"                             ....++++++++++++++++++++++++....   ",
"                             ....++++++++++++++++++++++++....   ",
"                          ...++++++++++++++++++++++++++++++++...",
"                          ...++++++++++++++++++++++++++++++++...",
"                          ...++++++++++++++++++++++++++++++++...",
"                          ...++++++++++++++++++++++++++++++++...",
"                          ...++++++++++++++++++++++++++++++++...",
"                          ...++++++++++++++++++++++++++++++++...",
"                          ...++++++++++++++++++++++++++++++++...",
"                          ...++++++++++++++++++++++++++++++++...",
"                          ...++++++++++++++++++++++++++++++++...",
"                          ...++++++++++++++++++++++++++++++++...",
"                          ...++++++++++++++++++++++++++++++++...",
"                          ...oooo++++++++++++++++++++++++oooo...",
"                          ...oooo++++++++++++++++++++++++oooo...",
"                          ...oooo++++++++++++++++++++++++oooo...",
"                          ...ooooOOOOOOOOOOOOOOOOOOOOOOOOoooo...",
"                          ...ooooOOOOOOOOOOOOOOOOOOOOOOOOoooo...",
"                          ...ooooOOOOOOOOOOOOOOOOOOOOOOOOoooo...",
"                          ...ooooOOOOOOOOOOOOOOOOOOOOOOOOoooo...",
"                          ...OOOOOOOOOOOOOOOOOOOOOOOOOOOOOOOO...",
"                          ...OOOOOOOOOOOOOOOOOOOOOOOOOOOOOOOO...",
"                          ...OOOOOOOOOOOOOOOOOOOOOOOOOOOOOOOO...",
"                          ...OOOO...OOOOOOO++++++++OOOOOOOOOO...",
"                          ...OOOO...OOOOOOO++++++++OOOOOOOOOO...",
"                          ...OOOO...OOOOOOO++++++++OOOOOOOOOO...",
"                          ...OOOO...OOOOOOO++++++++OOOOOOOOOO...",
"                          ...OOOO...OOOOOOO++++++++OOOOOOOOOO...",
"                          ...OOOO...OOOOOOO++++++++OOOOOOOOOO...",
"                          ...OOOO...OOOOOOO++++++++OOOOOOOOOO...",
"                             ....OOOOOOOOOOOOOOOOOOOOOOOO....   ",
"                             ....OOOOOOOOOOOOOOOOOOOOOOOO....   ",
"                             ....OOOOOOOOOOOOOOOOOOOOOOOO....   ",
"                                 ...XXXoooo....ooooXXX...       ",
"                                 ...XXXoooo....ooooXXX...       ",
"                                 ...XXXoooo....ooooXXX...       ",
"                                 ...OOO....OOOO++++XXX...       ",
"                                 ...OOO....OOOO++++XXX...       ",
"                                 ...OOO....OOOO++++XXX...       ",
"                                 ...OOO....OOOO++++XXX...       ",
"                                 ...OOO....OOOO++++XXX...       ",
"                             .......ooo....++++++++...XXX....   ",
"                             .......ooo....++++++++...XXX....   ",
"                             .......ooo....++++++++...XXX....   ",
"                          ...ooooXXX..................oooOOOO...",
"                          ...ooooXXX..................oooOOOO...",
"                          ...ooooXXX..................oooOOOO...",
"                          ...ooooXXX..................oooOOOO...",
"                             ....oooXXX............OOOOOO....   ",
"                             ....oooXXX............OOOOOO....   ",
"                             ....oooXXX............OOOOOO....   ",
"                                                                ",
"                                                                ",
"                                                                ",
"                                                                "
};
