/* XPM */
static char *player_bot21701270703[] = {
/* columns rows colors chars-per-pixel */
"64 64 6 1 ",
"  c None",
". c #1C2F60",
"X c #635D96",
"o c #978BDE",
"O c #C4C7EE",
"+ c gray99",
/* pixels */
"                                                                ",
"                                                                ",
"                                                                ",
"                                                                ",
"                                                                ",
"                                                                ",
"                                                                ",
"                                                                ",
"                    ........................                    ",
"                    ........................                    ",
"                    ........................                    ",
"                ....++++++++++++++++++++++++....                ",
"                ....++++++++++++++++++++++++....                ",
"                ....++++++++++++++++++++++++....                ",
"                ....++++++++++++++++++++++++....                ",
"             ...++++++++++++++++++++++++++++++++...             ",
"             ...++++++++++++++++++++++++++++++++...             ",
"             ...++++++++++++++++++++++++++++++++...             ",
"             ...++++++++++++++++++++++++++++++++...             ",
"             ...++++++++++++++++++++++++++++++++...             ",
"             ...++++++++++++++++++++++++++++++++...             ",
"             ...++++++++++++++++++++++++++++++++...             ",
"             ...++++++++++++++++++++++++++++++++...             ",
"             ...++++++++++++++++++++++++++++++++...             ",
"             ...++++++++++++++++++++++++++++++++...             ",
"             ...++++++++++++++++++++++++++++++++...             ",
"             ...oooo++++++++++++++++++++++++oooo...             ",
"             ...oooo++++++++++++++++++++++++oooo...             ",
"             ...oooo++++++++++++++++++++++++oooo...             ",
"             ...ooooOOOOOOOOOOOOOOOOOOOOOOOOoooo...             ",
"             ...ooooOOOOOOOOOOOOOOOOOOOOOOOOoooo...             ",
"             ...ooooOOOOOOOOOOOOOOOOOOOOOOOOoooo...             ",
"             ...ooooOOOOOOOOOOOOOOOOOOOOOOOOoooo...             ",
"          ...+++OOOOOOOOOOOOOOOOOOOOOOOOOOOOOOOO+++...          ",
"          ...+++OOOOOOOOOOOOOOOOOOOOOOOOOOOOOOOO+++...          ",
"          ...+++OOOOOOOOOOOOOOOOOOOOOOOOOOOOOOOO+++...          ",
"          ...+++OOOOOOO...OOOOOOOOOOOO...OOOOOOO+++...          ",
"          ...+++OOOOOOO...OOOOOOOOOOOO...OOOOOOO+++...          ",
"          ...+++OOOOOOO...OOOOOOOOOOOO...OOOOOOO+++...          ",
"             ...OOOOOOO...OOOOOOOOOOOO...OOOOOOO...             ",
"             ...OOOOOOO...OOOOOOOOOOOO...OOOOOOO...             ",
"             ...OOOOOOO...OOOOOOOOOOOO...OOOOOOO...             ",
"             ...OOOOOOO...OOOOOOOOOOOO...OOOOOOO...             ",
"                ....OOOOOOOOOOOOOOOOOOOOOOOO....                ",
"                ....OOOOOOOOOOOOOOOOOOOOOOOO....                ",
"                ....OOOOOOOOOOOOOOOOOOOOOOOO....                ",
"                .......XXXooooooooooooXXX.......                ",
"                .......XXXooooooooooooXXX.......                ",
"                .......XXXooooooooooooXXX.......                ",
"                ..OO+++...OOOOOOOOOOOOOOO...XXXX...             ",
"                .OOO+++...OOOOOOOOOOOOOOO...XXXX...             ",
"             ...OOOO+++...OOOOOOOOOOOOOOO...XXXX...             ",
"             ...OOOO+++...OOOOOOOOOOOOOOO...XXXX...             ",
"             ...OOOO+++...OOOOOOOOOOOOOOO...XXXX...             ",
"             ...+++++++...............++++++.......             ",
"             ...+++++++...............++++++.......             ",
"             ...+++++++...............++++++.......             ",
"                .......XXXXXXX....++++OOOOOO....                ",
"                .......XXXXXXX....++++OOOOOO....                ",
"                .......XXXXXXX....++++OOOOOO....                ",
"                .......XXXXXXX....++++OOOOOO....                ",
"                    ...ooooooo....OOOOOOO.......                ",
"                    ...ooooooo....OOOOOOO.......                ",
"                    ...ooooooo....OOOOOOO.......                "
};
