/* XPM */
static char *player_up3_21701299353[] = {
/* columns rows colors chars-per-pixel */
"64 64 5 1 ",
"  c None",
". c #1C2F60",
"X c #978BDE",
"o c #C4C7EE",
"O c gray99",
/* pixels */
"                                                                ",
"                                                                ",
"                                                                ",
"                                                                ",
"                                                                ",
"                                                                ",
"                                                                ",
"                                                                ",
"                                                                ",
"                                                                ",
"                                                                ",
"                                                                ",
"                                                                ",
"                                                                ",
"                                                                ",
"                                                                ",
"                                                                ",
"                                                                ",
"                                                                ",
"                                                                ",
"                                                                ",
"                                                                ",
"                                                                ",
"                                                                ",
"                                                                ",
"                                                                ",
"                                                                ",
"                                                                ",
"                                                                ",
"                                                                ",
"                                                                ",
"                                                                ",
"                                                                ",
"                                                                ",
"                                                                ",
"                                                                ",
"                                                                ",
"                                                                ",
"                                                                ",
"                                                                ",
"                    ........................                    ",
"                    ........................                    ",
"                    ........................                    ",
"                    ........................                    ",
"                ....OOOOOOOOOOOOOOOOOOOOOOOO....                ",
"                ....OOOOOOOOOOOOOOOOOOOOOOOO....                ",
"                ....OOOOOOOOOOOOOOOOOOOOOOOO....                ",
"                ....OOOOOOOOOOOOOOOOOOOOOOOO....                ",
"             ...OOOOOOOOOOOOOOOOOOOOOOOOOOOOOOOO...             ",
"             ...OOOOOOOOOOOOOOOOOOOOOOOOOOOOOOOO...             ",
"             ...OOOOOOOOOOOOOOOOOOOOOOOOOOOOOOOO...             ",
"             ...OOOOOOOOOOOOOOOOOOOOOOOOOOOOOOOO...             ",
"             ...OOOOOOOOOOOOOOOOOOOOOOOOOOOOOOOO...             ",
"             ...OOOOOOOOOOOOOOOOOOOOOOOOOOOOOOOO...             ",
"             ...OOOOOOOOOOOOOOOOOOOOOOOOOOOOOOOO...             ",
"             ...OOOOOOOOOOOOOOOOOOOOOOOOOOOOOOOO...             ",
"             ...OOOOOOOOOOOOOOOOOOOOOOOOOOOOOOOO...             ",
"             ...OOOOOOOOOOOOOOOOOOOOOOOOOOOOOOOO...             ",
"             ...XXXXOOOOOOOOOOOOOOOOOOOOOOOOXXXX...             ",
"             ...XXXXOOOOOOOOOOOOOOOOOOOOOOOOXXXX...             ",
"             ...XXXXOOOOOOOOOOOOOOOOOOOOOOOOXXXX...             ",
"             ...XXXXooooooooooooooooooooooooXXXX...             ",
"             ...XXXXooooooooooooooooooooooooXXXX...             ",
"             ...XXXXooooooooooooooooooooooooXXXX...             "
};
