/* XPM */
static char *New_Piskel_1_png__3_1701297205[] = {
/* columns rows colors chars-per-pixel */
"64 64 6 1 ",
"  c None",
". c #1C2F60",
"X c #635D96",
"o c #978BDE",
"O c #C4C7EE",
"+ c gray99",
/* pixels */
"                                                                ",
"                                                                ",
"                                                      ..........",
"                                                      ..........",
"                                                      ..........",
"                                                      ..........",
"                                                  ....++++++++++",
"                                                  ....++++++++++",
"                                                  ....++++++++++",
"                                                  ....++++++++++",
"                                               ...++++++++++++++",
"                                               ...++++++++++++++",
"                                               ...++++++++++++++",
"                                               ...++++++++++++++",
"                                               ...++++++++++++++",
"                                               ...++++++++++++++",
"                                               ...++++++++++++++",
"                                               ...++++++++++++++",
"                                               ...++++++++++++++",
"                                               ...++++++++++++++",
"                                               ...oooo++++++++++",
"                                               ...oooo++++++++++",
"                                               ...oooo++++++++++",
"                                               ...ooooOOOOOOOOOO",
"                                               ...ooooOOOOOOOOOO",
"                                               ...ooooOOOOOOOOOO",
"                                               ...OOOOOOOOOOOOOO",
"                                               ...OOOOOOOOOOOOOO",
"                                               ...OOOOOOOOOOOOOO",
"                                               ...OOOOOOOOOOOOOO",
"                                               ...OOOO...OOOOOOO",
"                                               ...OOOO...OOOOOOO",
"                                               ...OOOO...OOOOOOO",
"                                               ...OOOO...OOOOOOO",
"                                               ...OOOO...OOOOOOO",
"                                               ...OOOO...OOOOOOO",
"                                               ...OOOO...OOOOOOO",
"                                               ...OOOO...OOOOOOO",
"                                                  ....OOOOOOOOOO",
"                                                  ....OOOOOOOOOO",
"                                                  ....OOOOOOOOOO",
"                                                      ...XXXoooo",
"                                                      ...XXXoooo",
"                                                      ...XXXoooo",
"                                                      ...OOOOOOO",
"                                                      ...OOOOOOO",
"                                                      ...OOOOOOO",
"                                                      ...OOOOOOO",
"                                                      ...OOOOOOO",
"                                                      ...OOOOOOO",
"                                                      ...OOOOOOO",
"                                                      ...oooOOOO",
"                                                      ...oooOOOO",
"                                                      ...oooOOOO",
"                                                         ...oooo",
"                                                         ...oooo",
"                                                         ...oooo",
"                                                         ...oooo",
"                                                      ...+++++++",
"                                                      ...+++++++",
"                                                      ...+++++++",
"                                                      ...+++++++",
"                                                                ",
"                                                                "
};
