/* XPM */
static char *player_up41701299428[] = {
/* columns rows colors chars-per-pixel */
"64 64 6 1 ",
"  c None",
". c #1C2F60",
"X c #635D96",
"o c #978BDE",
"O c #C4C7EE",
"+ c gray99",
/* pixels */
"                                                                ",
"                                                                ",
"                                                                ",
"                                                                ",
"                                                                ",
"                                                                ",
"                                                                ",
"                                                                ",
"                    ........................                    ",
"                    ........................                    ",
"                    ........................                    ",
"                ....++++++++++++++++++++++++....                ",
"                ....++++++++++++++++++++++++....                ",
"                ....++++++++++++++++++++++++....                ",
"                ....++++++++++++++++++++++++....                ",
"             ...++++++++++++++++++++++++++++++++...             ",
"             ...++++++++++++++++++++++++++++++++...             ",
"             ...++++++++++++++++++++++++++++++++...             ",
"             ...++++++++++++++++++++++++++++++++...             ",
"             ...++++++++++++++++++++++++++++++++...             ",
"             ...++++++++++++++++++++++++++++++++...             ",
"             ...++++++++++++++++++++++++++++++++...             ",
"             ...++++++++++++++++++++++++++++++++...             ",
"             ...++++++++++++++++++++++++++++++++...             ",
"             ...++++++++++++++++++++++++++++++++...             ",
"             ...++++++++++++++++++++++++++++++++...             ",
"             ...oooo++++++++++++++++++++++++oooo...             ",
"             ...oooo++++++++++++++++++++++++oooo...             ",
"             ...oooo++++++++++++++++++++++++oooo...             ",
"             ...ooooOOOOOOOOOOOOOOOOOOOOOOOOoooo...             ",
"             ...ooooOOOOOOOOOOOOOOOOOOOOOOOOoooo...             ",
"             ...ooooOOOOOOOOOOOOOOOOOOOOOOOOoooo...             ",
"             ...ooooOOOOOOOOOOOOOOOOOOOOOOOOoooo...             ",
"          ...+++OOOOOOOOOOOOOOOOOOOOOOOOOOOOOOOO+++...          ",
"          ...+++OOOOOOOOOOOOOOOOOOOOOOOOOOOOOOOO+++...          ",
"          ...+++OOOOOOOOOOOOOOOOOOOOOOOOOOOOOOOO+++...          ",
"          ...+++OOOOOOOOOOOOOOOOOOOOOOOOOOOOOOOO+++...          ",
"          ...+++OOOOOOOOOOOOOOOOOOOOOOOOOOOOOOOO+++...          ",
"          ...+++OOOOOOOOOOOOOOOOOOOOOOOOOOOOOOOO+++...          ",
"             ...OOOOOOOOOOOOOOOOOOOOOOOOOOOOOOOO...             ",
"             ...OOOOOOOOOOOOOOOOOOOOOOOOOOOOOOOO...             ",
"             ...OOOOOOOOOOOOOOOOOOOOOOOOOOOOOOOO...             ",
"             ...OOOOOOOOOOOOOOOOOOOOOOOOOOOOOOOO...             ",
"                ....OOOOOOOOOOOOOOOOOOOOOOOO....                ",
"                ....OOOOOOOOOOOOOOOOOOOOOOOO....                ",
"                ....OOOOOOOOOOOOOOOOOOOOOOOO....                ",
"                .......XXXooooooooooooXXX.......                ",
"                .......XXXooooooooooooXXX.......                ",
"                .......XXXooooooooooooXXX.......                ",
"                .......OOOOOOOOOOOOOOOOOO+++++..                ",
"                .......OOOOOOOOOOOOOOOOOO++++++.                ",
"                .......OOOOOOOOOOOOOOOOOO+++++++...             ",
"                .......OOOOOOOOOOOOOOOOOO+++++++...             ",
"                .......OOOOOOOOOOOOOOOOOO+++++++...             ",
"                    ...XXX............XXXOOO++++...             ",
"                    ...XXX............XXXOOO++++...             ",
"                    ...XXX............XXXOOO++++...             ",
"                    ...+++++++XXXX....XXX.......                ",
"                    ...+++++++XXXX....XXX.......                ",
"                    ...+++++++XXXX....XXX.......                ",
"                    ...+++++++XXXX....XXX.......                ",
"                    ...+++++++OOOO.......                       ",
"                    ...+++++++OOOO.......                       ",
"                    ...+++++++OOOO.......                       "
};
