/* XPM */
static char *player_right11701270703[] = {
/* columns rows colors chars-per-pixel */
"64 64 6 1 ",
"  c None",
". c #1C2F60",
"X c #635D96",
"o c #978BDE",
"O c #C4C7EE",
"+ c gray99",
/* pixels */
"                                                                ",
"                                                                ",
"                    ........................                    ",
"                    ........................                    ",
"                    ........................                    ",
"                    ........................                    ",
"                ....++++++++++++++++++++++++....                ",
"                ....++++++++++++++++++++++++....                ",
"                ....++++++++++++++++++++++++....                ",
"                ....++++++++++++++++++++++++....                ",
"             ...++++++++++++++++++++++++++++++++...             ",
"             ...++++++++++++++++++++++++++++++++...             ",
"             ...++++++++++++++++++++++++++++++++...             ",
"             ...++++++++++++++++++++++++++++++++...             ",
"             ...++++++++++++++++++++++++++++++++...             ",
"             ...++++++++++++++++++++++++++++++++...             ",
"             ...++++++++++++++++++++++++++++++++...             ",
"             ...++++++++++++++++++++++++++++++++...             ",
"             ...++++++++++++++++++++++++++++++++...             ",
"             ...++++++++++++++++++++++++++++++++...             ",
"             ...oooo++++++++++++++++++++++++oooo...             ",
"             ...oooo++++++++++++++++++++++++oooo...             ",
"             ...oooo++++++++++++++++++++++++oooo...             ",
"             ...ooooOOOOOOOOOOOOOOOOOOOOOOOOoooo...             ",
"             ...ooooOOOOOOOOOOOOOOOOOOOOOOOOoooo...             ",
"             ...ooooOOOOOOOOOOOOOOOOOOOOOOOOoooo...             ",
"             ...OOOOOOOOOOOOOOOOOOOOOOOOOOOOOOOO...             ",
"             ...OOOOOOOOOOOOOOOOOOOOOOOOOOOOOOOO...             ",
"             ...OOOOOOOOOOOOOOOOOOOOOOOOOOOOOOOO...             ",
"             ...OOOOOOOOOOOOOOOOOOOOOOOOOOOOOOOO...             ",
"             ...OOOOOOOOOO++++++++OOOOOOO...OOOO...             ",
"             ...OOOOOOOOOO++++++++OOOOOOO...OOOO...             ",
"             ...OOOOOOOOOO++++++++OOOOOOO...OOOO...             ",
"             ...OOOOOOOOOO++++++++OOOOOOO...OOOO...             ",
"             ...OOOOOOOOOO++++++++OOOOOOO...OOOO...             ",
"             ...OOOOOOOOOO++++++++OOOOOOO...OOOO...             ",
"             ...OOOOOOOOOO++++++++OOOOOOO...OOOO...             ",
"             ...OOOOOOOOOO++++++++OOOOOOO...OOOO...             ",
"                ....OOOOOOOOOOOOOOOOOOOOOOOO....                ",
"                ....OOOOOOOOOOOOOOOOOOOOOOOO....                ",
"                ....OOOOOOOOOOOOOOOOOOOOOOOO....                ",
"                    ...XXXooooooooooooXXX...                    ",
"                    ...XXXooooooooooooXXX...                    ",
"                    ...XXXooooooooooooXXX...                    ",
"                    ...oooooooXXXXOOOOOOO...                    ",
"                    ...oooooooXXXXOOOOOOO...                    ",
"                    ...oooooooXXXXOOOOOOO...                    ",
"                    ...oooooooXXXXOOOOOOO...                    ",
"                    ...+++OOOO....OOOOOOO...                    ",
"                    ...+++OOOO....OOOOOOO...                    ",
"                    ...+++OOOO....OOOOOOO...                    ",
"                    ...+++++++....OOOOooo...                    ",
"                    ...+++++++....OOOOooo...                    ",
"                    ...+++++++....OOOOooo...                    ",
"                       .......XXXXoooo...                       ",
"                       .......XXXXoooo...                       ",
"                       .......XXXXoooo...                       ",
"                       .......XXXXoooo...                       ",
"                          ....OOOO+++++++...                    ",
"                          ....OOOO+++++++...                    ",
"                          ....OOOO+++++++...                    ",
"                          ....OOOO+++++++...                    ",
"                                                                ",
"                                                                "
};
