/* XPM */
static char * player_bot1_xpm[] = {
"64 64 6 1",
" 	c None",
".	c #1C2F60",
"+	c #FCFCFC",
"@	c #978BDE",
"#	c #C4C7EE",
"$	c #635D96",
"                                                                ",
"                                                                ",
"                                                                ",
"                                                                ",
"                                                                ",
"                                                                ",
"                                                                ",
"                                                                ",
"                                                                ",
"                                                                ",
"                                                                ",
"                                                                ",
"                                                                ",
"                                                                ",
"                                                                ",
"                         ..............                         ",
"                         ..............                         ",
"                       ..++++++++++++++..                       ",
"                       ..++++++++++++++..                       ",
"                     ..++++++++++++++++++..                     ",
"                     ..++++++++++++++++++..                     ",
"                     ..++++++++++++++++++..                     ",
"                     ..++++++++++++++++++..                     ",
"                     ..++++++++++++++++++..                     ",
"                     ..++++++++++++++++++..                     ",
"                     ..@@++++++++++++++@@..                     ",
"                     ..@@++++++++++++++@@..                     ",
"                     ..@@##############@@..                     ",
"                     ..@@##############@@..                     ",
"                   ..++##################++..                   ",
"                   ..++##################++..                   ",
"                   ..++####..######..####++..                   ",
"                   ..++####..######..####++..                   ",
"                     ..####..######..####..                     ",
"                     ..####..######..####..                     ",
"                       ..##############..                       ",
"                       ..##############..                       ",
"                       ....$$@@@@@@$$....                       ",
"                       ....$$@@@@@@$$....                       ",
"                     ..@@$$##########$$@@..                     ",
"                     ..@@$$##########$$@@..                     ",
"                   ..++##..##########..##++..                   ",
"                   ..++##..##########..##++..                   ",
"                   ..++++..$$......$$..++++..                   ",
"                   ..++++..$$......$$..++++..                   ",
"                     ......@@$$..$$@@......                     ",
"                     ......@@$$..$$@@......                     ",
"                       ..++++##..##++++..                       ",
"                       ..++++##..##++++..                       ",
"                                                                ",
"                                                                ",
"                                                                ",
"                                                                ",
"                                                                ",
"                                                                ",
"                                                                ",
"                                                                ",
"                                                                ",
"                                                                ",
"                                                                ",
"                                                                ",
"                                                                ",
"                                                                ",
"                                                                "};
