/* XPM */
static char *New_Piskel_1_png__2_1701297114[] = {
/* columns rows colors chars-per-pixel */
"64 64 6 1 ",
"  c None",
". c #1C2F60",
"X c #635D96",
"o c #978BDE",
"O c #C4C7EE",
"+ c gray99",
/* pixels */
"                                                                ",
"                                                                ",
"..............                                                  ",
"..............                                                  ",
"..............                                                  ",
"..............                                                  ",
"++++++++++++++....                                              ",
"++++++++++++++....                                              ",
"++++++++++++++....                                              ",
"++++++++++++++....                                              ",
"++++++++++++++++++...                                           ",
"++++++++++++++++++...                                           ",
"++++++++++++++++++...                                           ",
"++++++++++++++++++...                                           ",
"++++++++++++++++++...                                           ",
"++++++++++++++++++...                                           ",
"++++++++++++++++++...                                           ",
"++++++++++++++++++...                                           ",
"++++++++++++++++++...                                           ",
"++++++++++++++++++...                                           ",
"++++++++++++++oooo...                                           ",
"++++++++++++++oooo...                                           ",
"++++++++++++++oooo...                                           ",
"OOOOOOOOOOOOOOoooo...                                           ",
"OOOOOOOOOOOOOOoooo...                                           ",
"OOOOOOOOOOOOOOoooo...                                           ",
"OOOOOOOOOOOOOOOOOO...                                           ",
"OOOOOOOOOOOOOOOOOO...                                           ",
"OOOOOOOOOOOOOOOOOO...                                           ",
"OOOOOOOOOOOOOOOOOO...                                           ",
"++++++++OOOOOOOOOO...                                           ",
"++++++++OOOOOOOOOO...                                           ",
"++++++++OOOOOOOOOO...                                           ",
"++++++++OOOOOOOOOO...                                           ",
"++++++++OOOOOOOOOO...                                           ",
"++++++++OOOOOOOOOO...                                           ",
"++++++++OOOOOOOOOO...                                           ",
"++++++++OOOOOOOOOO...                                           ",
"OOOOOOOOOOOOOO....                                              ",
"OOOOOOOOOOOOOO....                                              ",
"OOOOOOOOOOOOOO....                                              ",
"ooooooooXXX...                                                  ",
"ooooooooXXX...                                                  ",
"ooooooooXXX...                                                  ",
"XXXXooooooo...                                                  ",
"XXXXooooooo...                                                  ",
"XXXXooooooo...                                                  ",
"XXXXooooooo...                                                  ",
"....OOOO+++...                                                  ",
"....OOOO+++...                                                  ",
"....OOOO+++...                                                  ",
"....+++++++...                                                  ",
"....+++++++...                                                  ",
"....+++++++...                                                  ",
"XXXX.......                                                     ",
"XXXX.......                                                     ",
"XXXX.......                                                     ",
"XXXX.......                                                     ",
"OOOO....                                                        ",
"OOOO....                                                        ",
"OOOO....                                                        ",
"OOOO....                                                        ",
"                                                                ",
"                                                                "
};
