/* XPM */
static char *player_top3_11701299270[] = {
/* columns rows colors chars-per-pixel */
"64 64 6 1 ",
"  c None",
". c #1C2F60",
"X c #635D96",
"o c #978BDE",
"O c #C4C7EE",
"+ c gray99",
/* pixels */
"          ...+++OOOOOOOOOOOOOOOOOOOOOOOOOOOOOOOO+++...          ",
"          ...+++OOOOOOOOOOOOOOOOOOOOOOOOOOOOOOOO+++...          ",
"          ...+++OOOOOOOOOOOOOOOOOOOOOOOOOOOOOOOO+++...          ",
"          ...+++OOOOOOOOOOOOOOOOOOOOOOOOOOOOOOOO+++...          ",
"          ...+++OOOOOOOOOOOOOOOOOOOOOOOOOOOOOOOO+++...          ",
"          ...+++OOOOOOOOOOOOOOOOOOOOOOOOOOOOOOOO+++...          ",
"          ...+++OOOOOOOOOOOOOOOOOOOOOOOOOOOOOOOO+++...          ",
"          ...+++OOOOOOOOOOOOOOOOOOOOOOOOOOOOOOOO+++...          ",
"             ...OOOOOOOOOOOOOOOOOOOOOOOOOOOOOOOO...             ",
"             ...OOOOOOOOOOOOOOOOOOOOOOOOOOOOOOOO...             ",
"             ...OOOOOOOOOOOOOOOOOOOOOOOOOOOOOOOO...             ",
"             ...OOOOOOOOOOOOOOOOOOOOOOOOOOOOOOOO...             ",
"                ....OOOOOOOOOOOOOOOOOOOOOOOO....                ",
"                ....OOOOOOOOOOOOOOOOOOOOOOOO....                ",
"                ....OOOOOOOOOOOOOOOOOOOOOOOO....                ",
"                .......XXXooooooooooooXXX.......                ",
"                .......XXXooooooooooooXXX.......                ",
"                .......XXXooooooooooooXXX.......                ",
"             ...ooooXXXOOOOOOOOOOOOOOOOOOXXXoooo...             ",
"             ...ooooXXXOOOOOOOOOOOOOOOOOOXXXoooo...             ",
"             ...ooooXXXOOOOOOOOOOOOOOOOOOXXXoooo...             ",
"             ...ooooXXXOOOOOOOOOOOOOOOOOOXXXoooo...             ",
"          ...+++OOOO...OOOOOOOOOOOOOOOOOO...OOOO+++...          ",
"          ...+++OOOO...OOOOOOOOOOOOOOOOOO...OOOO+++...          ",
"          ...+++OOOO...OOOOOOOOOOOOOOOOOO...OOOO+++...          ",
"          ...+++++++...XXX............XXX...+++++++...          ",
"          ...+++++++...XXX............XXX...+++++++...          ",
"          ...+++++++...XXX............XXX...+++++++...          ",
"             ..........oooXXXX....XXXXooo..........             ",
"             ..........oooXXXX....XXXXooo..........             ",
"             ..........oooXXXX....XXXXooo..........             ",
"             ..........oooXXXX....XXXXooo..........             ",
"                ....OOO+++++++....+++++++OOO....                ",
"                ....OOO+++++++....+++++++OOO....                ",
"                ....OOO+++++++....+++++++OOO....                ",
"                ....OOO+++++++....+++++++OOO....                ",
"                                                                ",
"                                                                ",
"                                                                ",
"                                                                ",
"                                                                ",
"                                                                ",
"                                                                ",
"                                                                ",
"                                                                ",
"                                                                ",
"                                                                ",
"                                                                ",
"                                                                ",
"                                                                ",
"                                                                ",
"                                                                ",
"                                                                ",
"                                                                ",
"                                                                ",
"                                                                ",
"                                                                ",
"                                                                ",
"                                                                ",
"                                                                ",
"                                                                ",
"                                                                ",
"                                                                ",
"                                                                "
};
