/* XPM */
static char *_fed6ad896114e39a946c088b7a5c1abpsnEbhcoXFhqxEc1[] = {
/* columns rows colors chars-per-pixel */
"64 64 8 1 ",
"  c black",
". c #373737",
"X c #52607C",
"o c #AD6039",
"O c #0CE420",
"+ c #8B9BB4",
"@ c #C0CBDC",
"# c white",
/* pixels */
"XXXXXXXXXXXXXXXXXXXXXXXXXXXXXXXXXXXXXXXXXXXXXXXXXXXXXXXXXXXXXXXX",
"XXXXXXXXXXXXXXXXXXXXXXXXXXXXXXXXXXXXXXXXXXXXXXXXXXXXXXXXXXXXXXXX",
"XXXXXXXXXXXXXXXXXXXXXXXXXXXXXXXXXXXXXXXXXXXXXXXXXXXXXXXXXXXXXXXX",
"XXXXXXXXXXXXXXXXXXXXXXXXXXXXXXXXXXXXXXXXXXXXXXXXXXXXXXXXXXXXXXXX",
"XXXX++++++++++++++++XXXX++++++++++++++++++++++++++++XXXX++++XXXX",
"XXXX++++++++++++++++XXXX++++++++++++++++++++++++++++XXXX++++XXXX",
"XXXX++++++++++++++++XXXX++++++++++++++++++++++++++++XXXX++++XXXX",
"XXXX++++++++++++++++XXXX++++++++++++++++++++++++++++XXXX++++XXXX",
"XXXX++++++++++++++++XXXXXXXXXXXXXXXXXXXXXXXXXXXXXXXXXXXX++++XXXX",
"XXXX++++++++++++++++XXXXXXXXXXXXXXXXXXXXXXXXXXXXXXXXXXXX++++XXXX",
"XXXX++++++++++++++++XXXXXXXXXXXXXXXXXXXXXXXXXXXXXXXXXXXX++++XXXX",
"XXXX++++++++++++++++XXXXXXXXXXXXXXXXXXXXXXXXXXXXXXXXXXXX++++XXXX",
"XXXX+++                                                  +++XXXX",
"XXXX+++ #oo##########################################oo# +++XXXX",
"XXXX+++ o..o########################################o..o +++XXXX",
"XXXX+++ o..o########################################o..o +++XXXX",
"XXXXXXX #oo###OO#####OO##############################oo# XXXXXXX",
"XXXXXXX ######OOOO#OOOO################################# XXXXXXX",
"XXXXXXX ######OOOOOOOOO################################# XXXXXXX",
"XXXXXXX ######OOOOOOOOO################################# XXXXXXX",
"XXXX+++ ######OO#OOO#OO##OOOO#O###O##OOO####OOOOO####### @@@XXXX",
"XXXX+++ ######OO#####OO#OOOOOOO###OOOOOOOO#OOOOOO####### @@@XXXX",
"XXXX+++ ######OO#####OOOOOOOOOO###OOO###OO#OO########### @@@XXXX",
"XXXX+++ ######OO#####OOOO####OO###OOOOOOOO#OOOOOO####### @@@XXXX",
"XXXX+++ ######OO#####OOOO####OOO#OO#OOOOOO#OOOOOO####### +++XXXX",
"XXXX+++ ######OO#####OOOO####OOO#OO#OO#########OO####### +++XXXX",
"XXXX+++ ######OO#####OOOOOOOOOOOOO##OO#########OO####### +++XXXX",
"XXXX+++ ######OO#####OO#OOOOOO#OOO##OOOOOOOOOOOOO####### +++XXXX",
"XXXX+++ ######OO#####OO##OOOO###O####OOOOOOOOOOO######## +++XXXX",
"XXXX+++ ################################################ +++XXXX",
"XXXX+++ ################################################ +++XXXX",
"XXXX+++ ################################################ +++XXXX",
"XXXXXXX ################################################ XXXXXXX",
"XXXXXXX ################################################ XXXXXXX",
"XXXXXXX ################################################ XXXXXXX",
"XXXXXXX ################################################ XXXXXXX",
"XXXX+++ ################################################ @@@XXXX",
"XXXX+++ ################################################ @@@XXXX",
"XXXX+++ ################################################ @@@XXXX",
"XXXX+++ ################################################ @@@XXXX",
"XXXXXXX ################################################ @@@XXXX",
"XXXXXXX ################################################ @@@XXXX",
"XXXXXXX ################################################ @@@XXXX",
"XXXXXXX ################################################ @@@XXXX",
"XXXX+++ ################################################ @@@XXXX",
"XXXX+++ ################################################ @@@XXXX",
"XXXX+++ ################################################ @@@XXXX",
"XXXX+++ ################################################ @@@XXXX",
"XXXXXXX ################################################ XXXXXXX",
"XXXXXXX ################################################ XXXXXXX",
"XXXXXXX ################################################ XXXXXXX",
"XXXXXXX                                                  XXXXXXX",
"XXXX++++XXXX++++++++++++++++++++++++++++XXXX++++@@@@@@@@@@@@XXXX",
"XXXX++++XXXX++++++++++++++++++++++++++++XXXX++++@@@@@@@@@@@@XXXX",
"XXXX++++XXXX++++++++++++++++++++++++++++XXXX++++@@@@@@@@@@@@XXXX",
"XXXX++++XXXX++++++++++++++++++++++++++++XXXX++++@@@@@@@@@@@@XXXX",
"XXXX++++XXXX++++++++++++++++++++++++++++XXXX++++++++++++++++XXXX",
"XXXX++++XXXX++++++++++++++++++++++++++++XXXX++++++++++++++++XXXX",
"XXXX++++XXXX++++++++++++++++++++++++++++XXXX++++++++++++++++XXXX",
"XXXX++++XXXX++++++++++++++++++++++++++++XXXX++++++++++++++++XXXX",
"XXXXXXXXXXXXXXXXXXXXXXXXXXXXXXXXXXXXXXXXXXXXXXXXXXXXXXXXXXXXXXXX",
"XXXXXXXXXXXXXXXXXXXXXXXXXXXXXXXXXXXXXXXXXXXXXXXXXXXXXXXXXXXXXXXX",
"XXXXXXXXXXXXXXXXXXXXXXXXXXXXXXXXXXXXXXXXXXXXXXXXXXXXXXXXXXXXXXXX",
"XXXXXXXXXXXXXXXXXXXXXXXXXXXXXXXXXXXXXXXXXXXXXXXXXXXXXXXXXXXXXXXX"
};
