/* XPM */
static char *df77a1e8b7824a0eff03d1fb899dfc50ZbwuCgwgH2ym2E8J[] = {
/* columns rows colors chars-per-pixel */
"64 64 3 1 ",
"  c #52607C",
". c #8B9BB4",
"X c #C0CBDC",
/* pixels */
"                                                                ",
"                                                                ",
"                                                                ",
"                                                                ",
"    ................    ............................    ....    ",
"    ................    ............................    ....    ",
"    ................    ............................    ....    ",
"    ................    ............................    ....    ",
"    ................                                    ....    ",
"    ................                                    ....    ",
"    ................                                    ....    ",
"    ................                                    ....    ",
"    ................    ............................    ....    ",
"    ................    ............................    ....    ",
"    ................    ............................    ....    ",
"    ................    ............................    ....    ",
"                                                                ",
"                                                                ",
"                                                                ",
"                                                                ",
"    ....    ............................    ....XXXXXXXXXXXX    ",
"    ....    ............................    ....XXXXXXXXXXXX    ",
"    ....    ............................    ....XXXXXXXXXXXX    ",
"    ....    ............................    ....XXXXXXXXXXXX    ",
"    ....    ............................    ................    ",
"    ....    ............................    ................    ",
"    ....    ............................    ................    ",
"    ....    ............................    ................    ",
"    ....    ............................    ................    ",
"    ....    ............................    ................    ",
"    ....    ............................    ................    ",
"    ....    ............................    ................    ",
"                                                                ",
"                                                                ",
"                                                                ",
"                                                                ",
"    ................    ....XXXXXXXXXXXXXXXXXXXX....    XXXX    ",
"    ................    ....XXXXXXXXXXXXXXXXXXXX....    XXXX    ",
"    ................    ....XXXXXXXXXXXXXXXXXXXX....    XXXX    ",
"    ................    ....XXXXXXXXXXXXXXXXXXXX....    XXXX    ",
"                        ............................    XXXX    ",
"                        ............................    XXXX    ",
"                        ............................    XXXX    ",
"                        ............................    XXXX    ",
"    ................    ............................    XXXX    ",
"    ................    ............................    XXXX    ",
"    ................    ............................    XXXX    ",
"    ................    ............................    XXXX    ",
"                                                                ",
"                                                                ",
"                                                                ",
"                                                                ",
"    ....    ............................    ....XXXXXXXXXXXX    ",
"    ....    ............................    ....XXXXXXXXXXXX    ",
"    ....    ............................    ....XXXXXXXXXXXX    ",
"    ....    ............................    ....XXXXXXXXXXXX    ",
"    ....    ............................    ................    ",
"    ....    ............................    ................    ",
"    ....    ............................    ................    ",
"    ....    ............................    ................    ",
"                                                                ",
"                                                                ",
"                                                                ",
"                                                                "
};
